<?xml version="1.0" encoding="utf-8"?>
<!-- Generator: Adobe Illustrator 20.0.0, SVG Export Plug-In . SVG Version: 6.00 Build 0)  -->
<svg version="1.1" id="Layer_1" xmlns="http://www.w3.org/2000/svg" xmlns:xlink="http://www.w3.org/1999/xlink" x="0px" y="0px"
	 width="576px" height="576px" viewBox="0 0 576 576" style="enable-background:new 0 0 576 576;" xml:space="preserve">
<g>
	<path d="M445.5,576h-315L55.1,110.1h465.9L445.5,576z M168.7,167.5h-18.8l43.6,351.2h18.8L168.7,167.5z M297.3,167.5h-18.6v351.2
		h18.6V167.5z M407.3,167.5l-43.6,351.2h18.8l43.6-351.2H407.3z"/>
	<path d="M55.1,44.9h174.2c-2.1-4.2-3.4-8.9-3.4-13.9c0-17.2,13.9-31.1,31.1-31.1h62.1c17.2,0,31.1,13.9,31.1,31.1
		c0,5-1.3,9.7-3.4,13.9h174.2c13.7,0,24.8,11.1,24.8,24.8c0,13.7-11.1,24.8-24.8,24.8H55.1c-13.7,0-24.8-11.1-24.8-24.8
		C30.2,56,41.4,44.9,55.1,44.9z"/>
</g>
</svg>
