<?xml version="1.0" encoding="utf-8"?>
<!-- Generator: Adobe Illustrator 20.0.0, SVG Export Plug-In . SVG Version: 6.00 Build 0)  -->
<svg version="1.1" id="Layer_1" xmlns="http://www.w3.org/2000/svg" xmlns:xlink="http://www.w3.org/1999/xlink" x="0px" y="0px"
	 width="576px" height="576px" viewBox="0 0 576 576" style="enable-background:new 0 0 576 576; fill:white" xml:space="preserve">
<g>
	<path d="M144.2,576h297l71.2-439.4H73L144.2,576z M405.2,190.7h17.7l-41.1,331.2h-17.7L405.2,190.7z M283.9,190.7h17.6v331.2h-17.6
		V190.7z M180.1,190.7l41.1,331.2h-17.7l-41.1-331.2H180.1z"/>
	<path d="M503.2,19.1l-163.1,20c1.5-4.2,2.2-8.7,1.6-13.4c-2-16.1-16.6-27.5-32.6-25.5l-58.1,7.1c-16.1,2-27.5,16.6-25.5,32.6
		c0.6,4.7,2.3,8.9,4.8,12.6l-163.1,20c-12.8,1.6-22,13.3-20.4,26.1c1.6,12.8,13.3,22,26.1,20.4l436.1-53.5
		c12.8-1.6,22-13.3,20.4-26.1C527.7,26.6,516,17.5,503.2,19.1z"/>
</g>
</svg>
